HIERARCHY
ROOT SpineBase
{
  OFFSET 0.000000 0.000000 0.000000
  CHANNELS 6 Xposition Yposition Zposition Zrotation Xrotation Yrotation
  JOINT SpineMid
  {
    OFFSET 0.000000 31.231241 -0.000000
    CHANNELS 3 Zrotation Xrotation Yrotation
    JOINT SpineShoulder
    {
      OFFSET -0.163358 23.208829 -0.832257
      CHANNELS 3 Zrotation Xrotation Yrotation
      JOINT Neck
      {
        OFFSET -0.128915 7.688522 -0.619115
        CHANNELS 3 Zrotation Xrotation Yrotation
        JOINT Head
        {
          OFFSET -0.001792 13.475731 -0.176741
          CHANNELS 3 Zrotation Xrotation Yrotation
          End Site
          {
            OFFSET 0 0 0
          }
        }
      }
      JOINT ShoulderLeft
      {
        OFFSET -18.220251 -3.197668 1.739210
        CHANNELS 3 Zrotation Xrotation Yrotation
        JOINT ElbowLeft
        {
          OFFSET -3.958652 -29.194390 0.569646
          CHANNELS 3 Zrotation Xrotation Yrotation
          JOINT WristLeft
          {
            OFFSET -0.784838 -21.705716 -6.807822
            CHANNELS 3 Zrotation Xrotation Yrotation
            JOINT HandLeft
            {
              OFFSET 0.843292 -5.632600 0.005910
              CHANNELS 3 Zrotation Xrotation Yrotation
              JOINT HandTipLeft
              {
                OFFSET -0.262709 -6.734017 -2.464493
                CHANNELS 3 Zrotation Xrotation Yrotation
                End Site
                {
                  OFFSET 0 0 0
                }
              }
              JOINT ThumbLeft
              {
                OFFSET 4.304726 1.792355 -0.109344
                CHANNELS 3 Zrotation Xrotation Yrotation
                End Site
                {
                  OFFSET 0 0 0
                }
              }
            }
          }
        }
      }
      JOINT ShoulderRight
      {
        OFFSET 16.300576 -4.017684 -6.045665
        CHANNELS 3 Zrotation Xrotation Yrotation
        JOINT ElbowRight
        {
          OFFSET 3.110449 -26.863406 -0.526394
          CHANNELS 3 Zrotation Xrotation Yrotation
          JOINT WristRight
          {
            OFFSET -0.087164 -23.399743 -7.642825
            CHANNELS 3 Zrotation Xrotation Yrotation
            JOINT HandRight
            {
              OFFSET -0.368076 -7.373777 -0.239303
              CHANNELS 3 Zrotation Xrotation Yrotation
              JOINT HandTipRight
              {
                OFFSET -0.090868 -7.376819 -1.470099
                CHANNELS 3 Zrotation Xrotation Yrotation
                End Site
                {
                  OFFSET 0 0 0
                }
              }
              JOINT ThumbRight
              {
                OFFSET -3.835318 0.817154 1.370832
                CHANNELS 3 Zrotation Xrotation Yrotation
                End Site
                {
                  OFFSET 0 0 0
                }
              }
            }
          }
        }
      }
    }
  }
  JOINT HipLeft
  {
    OFFSET -7.310687 1.134694 -2.113568
    CHANNELS 3 Zrotation Xrotation Yrotation
    JOINT KneeLeft
    {
      OFFSET -1.972514 -34.332396 5.133488
      CHANNELS 3 Zrotation Xrotation Yrotation
      JOINT AnkleLeft
      {
        OFFSET 1.202242 -34.794190 8.745008
        CHANNELS 3 Zrotation Xrotation Yrotation
        JOINT FootLeft
        {
          OFFSET -1.395493 -7.900958 -5.946003
          CHANNELS 3 Zrotation Xrotation Yrotation
          End Site
          {
            OFFSET 0 0 0
          }
        }
      }
    }
  }
  JOINT HipRight
  {
    OFFSET 5.785064 1.282836 -4.827999
    CHANNELS 3 Zrotation Xrotation Yrotation
    JOINT KneeRight
    {
      OFFSET 5.042447 -33.429845 3.025995
      CHANNELS 3 Zrotation Xrotation Yrotation
      JOINT AnkleRight
      {
        OFFSET 3.908719 -37.247184 9.126759
        CHANNELS 3 Zrotation Xrotation Yrotation
        JOINT FootRight
        {
          OFFSET 1.236205 -7.343191 -6.916930
          CHANNELS 3 Zrotation Xrotation Yrotation
          End Site
          {
            OFFSET 0 0 0
          }
        }
      }
    }
  }
}
MOTION
Frames: 13
Frame Time: 0.033333
64.082432 76.885643 289.717408 -0.000000 -0.000000 11.710197 0.000000 0.000000 -11.710197 -0.000000 0.000000 0.000000 -0.000000 0.000000 0.000000 0.000000 0.000000 0.000000 -0.000000 0.000000 0.000000 -0.000000 0.000000 0.000000 -0.000000 0.000000 0.000000 -0.000000 0.000000 0.000000 0.000000 0.000000 0.000000 0.000000 0.000000 0.000000 -0.000000 0.000000 0.000000 -0.000000 0.000000 0.000000 -0.000000 0.000000 0.000000 -0.000000 0.000000 0.000000 0.000000 0.000000 0.000000 0.000000 0.000000 0.000000 0.000000 0.000000 -11.710197 -0.000000 0.000000 0.000000 -0.000000 0.000000 0.000000 0.000000 0.000000 0.000000 0.000000 0.000000 -11.710197 -0.000000 0.000000 0.000000 -0.000000 0.000000 0.000000 0.000000 0.000000 0.000000
64.071026 76.852838 289.713849 0.007358 -0.032184 11.631860 -0.000717 0.033006 -11.631857 -0.000000 0.000000 0.000000 -0.000000 0.000000 0.000000 0.000000 0.000000 0.000000 -0.000000 0.000000 0.000000 -0.474300 -1.064859 0.183365 -3.222695 2.666505 0.164297 4.774109 -4.115375 -0.431565 0.000000 0.000000 0.000000 0.000000 0.000000 0.000000 -0.000000 0.000000 0.000000 1.147380 -1.216318 -0.359317 0.789254 -0.232942 0.376936 -1.707328 -2.460307 0.019800 0.000000 0.000000 0.000000 0.000000 0.000000 0.000000 -0.000717 0.033006 -11.631857 -0.000000 0.000000 0.000000 -0.000000 0.000000 0.000000 0.000000 0.000000 0.000000 -0.000717 0.033006 -11.631857 -0.000000 0.000000 0.000000 -0.000000 0.000000 0.000000 0.000000 0.000000 0.000000
64.062125 76.823674 289.711812 0.014564 -0.060764 11.564956 -0.002086 0.062450 -11.564947 -0.000000 0.000000 0.000000 -0.000000 0.000000 0.000000 0.000000 0.000000 0.000000 -0.000000 0.000000 0.000000 -0.930494 -1.990095 0.349452 -5.999562 5.215404 0.532660 9.026401 -7.929690 -0.676128 0.000000 0.000000 0.000000 0.000000 0.000000 0.000000 1.003217 -0.006393 -0.020322 1.124801 -2.268296 -0.628186 1.166814 -0.305831 0.699428 -2.978658 -4.295550 0.080636 0.000000 0.000000 0.000000 0.000000 0.000000 0.000000 -0.002086 0.062450 -11.564947 -0.000000 0.000000 0.000000 0.294443 0.835336 -0.369417 0.000000 0.000000 0.000000 -0.002086 0.062450 -11.564947 -0.000000 0.000000 0.000000 -0.000000 0.000000 0.000000 0.000000 0.000000 0.000000
64.055729 76.798152 289.711295 0.021621 -0.085749 11.509526 -0.004076 0.088338 -11.509507 -0.000000 0.000000 0.000000 -0.000000 0.000000 0.000000 0.000000 0.000000 0.000000 -0.173018 -0.794445 0.103115 -1.198954 -1.977715 0.413620 -8.281720 7.610954 1.032828 12.720686 -11.394611 -0.765376 0.000000 0.000000 0.000000 0.000000 0.000000 0.000000 1.405985 -0.043756 -0.032036 1.535303 -3.125875 -0.844238 1.077084 -0.199444 0.973337 -3.757299 -5.585389 0.147760 0.000000 0.000000 0.000000 0.000000 0.000000 0.000000 -0.004076 0.088338 -11.509507 -0.000000 0.000000 0.000000 0.309219 1.056503 -0.419455 0.000000 0.000000 0.000000 -0.004076 0.088338 -11.509507 -0.000000 0.000000 0.000000 -0.000000 0.000000 0.000000 0.000000 0.000000 0.000000
64.051838 76.776273 289.712300 0.028529 -0.107147 11.465600 -0.006661 0.110680 -11.465567 -0.000000 0.000000 0.000000 -0.000000 0.000000 0.000000 0.000000 0.000000 0.000000 -0.244648 -1.006831 0.129543 -1.550011 -2.406025 0.534975 -10.038936 9.832784 1.594761 15.838163 -14.475695 -0.736221 0.000000 0.000000 0.000000 0.000000 0.000000 0.000000 1.745372 -0.103507 -0.044534 1.842229 -3.793549 -1.005147 0.478999 0.100431 1.207437 -4.005426 -6.402157 0.197457 0.000000 0.000000 0.000000 0.000000 0.000000 0.000000 -0.006661 0.110680 -11.465567 -0.000000 0.000000 0.000000 0.235340 1.148782 -0.379649 0.000000 0.000000 0.000000 -0.006661 0.110680 -11.465567 -0.000000 0.000000 0.000000 0.570279 0.341904 -0.479570 0.000000 0.000000 0.000000
64.050451 76.758035 289.714826 0.035290 -0.124967 11.433202 -0.009818 0.129482 -11.433153 -0.000000 0.000000 0.000000 -0.000000 0.000000 0.000000 0.000000 0.000000 0.000000 -0.323386 -1.193369 0.152055 -1.876999 -2.717328 0.649750 -11.256291 11.871887 2.155788 18.372673 -17.149512 -0.628446 0.000000 0.000000 0.000000 0.000000 0.000000 0.000000 2.022906 -0.185477 -0.057728 2.044240 -4.268773 -1.116684 -0.655182 0.604033 1.413763 -3.699632 -6.799788 0.219342 0.000000 0.000000 0.000000 0.000000 0.000000 0.000000 -0.009818 0.129482 -11.433153 -0.000000 0.000000 0.000000 0.072782 1.112468 -0.250173 0.000000 0.000000 0.000000 -0.009818 0.129482 -11.433153 -0.000000 0.000000 0.000000 0.550156 0.491373 -0.435747 0.000000 0.000000 0.000000
64.048403 76.744801 289.718127 0.042125 -0.140585 11.408588 -0.013484 0.146140 -11.408520 -0.000000 0.000000 0.000000 -0.000000 0.000000 0.000000 0.000000 0.000000 0.000000 -0.427218 -1.343087 0.168658 -2.293096 -2.935846 0.799992 -11.862593 14.274165 2.781361 19.149671 -18.871491 -0.401906 0.000000 0.000000 0.000000 0.000000 0.000000 0.000000 2.293101 -0.301494 -0.073648 2.087341 -4.555775 -1.180456 -2.677438 1.263925 1.641000 -2.640704 -6.370893 0.219306 0.000000 0.000000 0.000000 0.000000 0.000000 0.000000 -0.013484 0.146140 -11.408520 -0.000000 0.000000 0.000000 -0.213193 0.907055 0.001908 0.000000 0.000000 0.000000 -0.013484 0.146140 -11.408520 -0.000000 0.000000 0.000000 0.457136 0.832887 -0.291516 0.000000 0.000000 0.000000
64.051063 76.734622 289.725472 0.048328 -0.154293 11.395755 -0.016890 0.160800 -11.395666 -0.000000 0.000000 0.000000 -0.000000 0.000000 0.000000 0.000000 0.000000 0.000000 -0.531638 -1.483225 0.183714 -2.584166 -2.939195 0.910258 -11.824208 16.270959 3.262657 20.948695 -20.442764 -0.382600 0.000000 0.000000 0.000000 0.000000 0.000000 0.000000 2.461313 -0.439480 -0.089467 1.951230 -4.539313 -1.172792 -5.045758 2.001924 1.824762 -0.871299 -6.891822 0.186464 0.000000 0.000000 0.000000 0.000000 0.000000 0.000000 -0.016890 0.160800 -11.395666 -0.000000 0.000000 0.000000 -0.708944 0.509248 0.444764 0.000000 0.000000 0.000000 -0.016890 0.160800 -11.395666 -0.000000 0.000000 0.000000 0.338366 1.140074 -0.128885 0.000000 0.000000 0.000000
64.060661 76.727555 289.730915 0.056767 -0.161116 11.399391 -0.023803 0.169158 -11.399276 -0.000000 0.000000 0.000000 -0.000000 0.000000 0.000000 0.000000 0.000000 0.000000 -0.629992 -1.596493 0.195223 -2.810453 -2.861790 1.000879 -11.300836 17.371652 3.421112 23.068248 -21.574428 -0.421383 0.000000 0.000000 0.000000 0.000000 0.000000 0.000000 2.550543 -0.576013 -0.103603 1.838452 -4.517242 -1.150639 -7.581516 3.653376 2.021455 0.809983 -6.890835 0.249978 0.000000 0.000000 0.000000 0.000000 0.000000 0.000000 -0.023803 0.169158 -11.399276 -0.000000 0.000000 0.000000 -1.204978 0.032532 0.899575 0.000000 0.000000 0.000000 -0.023803 0.169158 -11.399276 -0.000000 0.000000 0.000000 0.250177 1.656910 0.039135 0.000000 0.000000 0.000000
64.070097 76.722192 289.742418 0.064698 -0.167371 11.418882 -0.030281 0.176867 -11.418741 -0.000000 0.000000 0.000000 -0.000000 0.000000 0.000000 0.000000 0.000000 0.000000 -0.726664 -1.692313 0.204342 -2.933346 -2.734478 1.060964 -10.906807 18.063630 3.508608 25.672451 -24.252884 -0.158467 0.000000 0.000000 0.000000 0.000000 0.000000 0.000000 2.549367 -0.730550 -0.118008 1.672088 -4.283954 -1.093831 -10.245938 5.140343 2.250189 3.834105 -6.293537 0.212273 0.000000 0.000000 0.000000 0.000000 0.000000 0.000000 -0.030281 0.176867 -11.418741 -0.000000 0.000000 0.000000 -1.566883 -0.446518 1.252616 0.000000 0.000000 0.000000 -0.030281 0.176867 -11.418741 -0.000000 0.000000 0.000000 -0.008812 1.554819 0.266779 0.000000 0.000000 0.000000
64.081571 76.714476 289.757370 0.070539 -0.171872 11.431129 -0.035077 0.182443 -11.430968 -0.000000 0.000000 0.000000 -0.000000 0.000000 0.000000 0.000000 0.000000 0.000000 -0.809466 -1.774718 0.212065 -2.889636 -2.555943 1.066358 -9.663430 18.523538 3.386699 24.159794 -23.350444 -0.427938 0.000000 0.000000 0.000000 0.000000 0.000000 0.000000 2.469885 -0.857621 -0.128918 1.333104 -3.897302 -0.970189 -12.386730 6.854711 2.400148 6.170075 -5.888234 0.352503 0.000000 0.000000 0.000000 0.000000 0.000000 0.000000 -0.035077 0.182443 -11.430968 -0.000000 0.000000 0.000000 -1.815322 -0.665993 1.475590 0.000000 0.000000 0.000000 -0.035077 0.182443 -11.430968 -0.000000 0.000000 0.000000 -0.372767 0.769132 0.480338 0.000000 0.000000 0.000000
64.091452 76.707609 289.772526 0.070478 -0.184787 11.441934 -0.032421 0.195096 -11.441765 -0.000000 0.000000 0.000000 -0.000000 0.000000 0.000000 0.000000 0.000000 0.000000 -0.862868 -1.824783 0.216587 -2.827688 -2.369429 1.059102 -8.689198 19.230907 3.392251 24.540966 -24.525164 -0.382675 0.000000 0.000000 0.000000 0.000000 0.000000 0.000000 2.310297 -0.969871 -0.137723 1.012519 -3.487069 -0.828749 -13.938584 8.642889 2.517446 8.147450 -5.944209 0.559913 0.000000 0.000000 0.000000 0.000000 0.000000 0.000000 -0.032421 0.195096 -11.441765 -0.000000 0.000000 0.000000 -2.157299 -0.695977 1.735556 0.000000 0.000000 0.000000 -0.032421 0.195096 -11.441765 -0.000000 0.000000 0.000000 -0.000000 0.000000 0.000000 0.000000 0.000000 0.000000
64.097284 76.694816 289.798228 0.069855 -0.192657 11.463979 -0.030170 0.202697 -11.463809 -0.000000 0.000000 0.000000 -0.000000 0.000000 0.000000 0.000000 0.000000 0.000000 -0.903234 -1.851356 0.218537 -2.667723 -2.155742 1.018349 -8.176768 19.550438 3.408044 24.040171 -23.428161 -0.637744 0.000000 0.000000 0.000000 0.000000 0.000000 0.000000 2.168282 -1.045251 -0.143454 0.538959 -3.089668 -0.644434 -15.141435 10.358819 2.602184 9.418996 -6.649420 0.863384 0.000000 0.000000 0.000000 0.000000 0.000000 0.000000 -0.030170 0.202697 -11.463809 -0.000000 0.000000 0.000000 -2.286996 -0.555339 1.808419 0.000000 0.000000 0.000000 -0.030170 0.202697 -11.463809 -0.000000 0.000000 0.000000 -0.676305 -0.274124 0.591202 0.000000 0.000000 0.000000
